<?xml version="1.0" encoding="utf-8" standalone="no"?>
<!DOCTYPE svg PUBLIC "-//W3C//DTD SVG 1.1//EN"
  "http://www.w3.org/Graphics/SVG/1.1/DTD/svg11.dtd">
<svg height="288pt" version="1.1" viewBox="0 0 432 288" width="432pt" xmlns="http://www.w3.org/2000/svg" xmlns:xlink="http://www.w3.org/1999/xlink">
 <metadata>
  <rdf:RDF xmlns:cc="http://creativecommons.org/ns#" xmlns:dc="http://purl.org/dc/elements/1.1/" xmlns:rdf="http://www.w3.org/1999/02/22-rdf-syntax-ns#">
   <cc:Work>
    <dc:type rdf:resource="http://purl.org/dc/dcmitype/StillImage"/>
    <dc:date>2023-08-25T15:44:35.327588</dc:date>
    <dc:format>image/svg+xml</dc:format>
    <dc:creator>
     <cc:Agent>
      <dc:title>Matplotlib v3.4.3, https://matplotlib.org/</dc:title>
     </cc:Agent>
    </dc:creator>
   </cc:Work>
  </rdf:RDF>
 </metadata>
 <defs>
  <style type="text/css">*{stroke-linecap:butt;stroke-linejoin:round;}</style>
 </defs>
 <g id="figure_1">
  <g id="patch_1">
   <path d="M 0 288 
L 432 288 
L 432 0 
L 0 0 
z
" style="fill:none;"/>
  </g>
  <g id="axes_1">
   <g id="patch_2">
    <path d="M 54 252 
L 388.8 252 
L 388.8 34.56 
L 54 34.56 
z
" style="fill:#ffffff;"/>
   </g>
   <g id="matplotlib.axis_1">
    <g id="xtick_1">
     <g id="line2d_1">
      <defs>
       <path d="M 0 0 
L 0 3.5 
" id="m02a8964e7e" style="stroke:#000000;stroke-width:0.8;"/>
      </defs>
      <g>
       <use style="stroke:#000000;stroke-width:0.8;" x="67.688716" xlink:href="#m02a8964e7e" y="252"/>
      </g>
     </g>
     <g id="text_1">
      <!-- 0 -->
      <g transform="translate(64.507466 266.598437)scale(0.1 -0.1)">
       <defs>
        <path d="M 2034 4250 
Q 1547 4250 1301 3770 
Q 1056 3291 1056 2328 
Q 1056 1369 1301 889 
Q 1547 409 2034 409 
Q 2525 409 2770 889 
Q 3016 1369 3016 2328 
Q 3016 3291 2770 3770 
Q 2525 4250 2034 4250 
z
M 2034 4750 
Q 2819 4750 3233 4129 
Q 3647 3509 3647 2328 
Q 3647 1150 3233 529 
Q 2819 -91 2034 -91 
Q 1250 -91 836 529 
Q 422 1150 422 2328 
Q 422 3509 836 4129 
Q 1250 4750 2034 4750 
z
" id="DejaVuSans-30" transform="scale(0.015625)"/>
       </defs>
       <use xlink:href="#DejaVuSans-30"/>
      </g>
     </g>
    </g>
    <g id="xtick_2">
     <g id="line2d_2">
      <g>
       <use style="stroke:#000000;stroke-width:0.8;" x="105.925354" xlink:href="#m02a8964e7e" y="252"/>
      </g>
     </g>
     <g id="text_2">
      <!-- 25 -->
      <g transform="translate(99.562854 266.598437)scale(0.1 -0.1)">
       <defs>
        <path d="M 1228 531 
L 3431 531 
L 3431 0 
L 469 0 
L 469 531 
Q 828 903 1448 1529 
Q 2069 2156 2228 2338 
Q 2531 2678 2651 2914 
Q 2772 3150 2772 3378 
Q 2772 3750 2511 3984 
Q 2250 4219 1831 4219 
Q 1534 4219 1204 4116 
Q 875 4013 500 3803 
L 500 4441 
Q 881 4594 1212 4672 
Q 1544 4750 1819 4750 
Q 2544 4750 2975 4387 
Q 3406 4025 3406 3419 
Q 3406 3131 3298 2873 
Q 3191 2616 2906 2266 
Q 2828 2175 2409 1742 
Q 1991 1309 1228 531 
z
" id="DejaVuSans-32" transform="scale(0.015625)"/>
        <path d="M 691 4666 
L 3169 4666 
L 3169 4134 
L 1269 4134 
L 1269 2991 
Q 1406 3038 1543 3061 
Q 1681 3084 1819 3084 
Q 2600 3084 3056 2656 
Q 3513 2228 3513 1497 
Q 3513 744 3044 326 
Q 2575 -91 1722 -91 
Q 1428 -91 1123 -41 
Q 819 9 494 109 
L 494 744 
Q 775 591 1075 516 
Q 1375 441 1709 441 
Q 2250 441 2565 725 
Q 2881 1009 2881 1497 
Q 2881 1984 2565 2268 
Q 2250 2553 1709 2553 
Q 1456 2553 1204 2497 
Q 953 2441 691 2322 
L 691 4666 
z
" id="DejaVuSans-35" transform="scale(0.015625)"/>
       </defs>
       <use xlink:href="#DejaVuSans-32"/>
       <use x="63.623047" xlink:href="#DejaVuSans-35"/>
      </g>
     </g>
    </g>
    <g id="xtick_3">
     <g id="line2d_3">
      <g>
       <use style="stroke:#000000;stroke-width:0.8;" x="144.161992" xlink:href="#m02a8964e7e" y="252"/>
      </g>
     </g>
     <g id="text_3">
      <!-- 50 -->
      <g transform="translate(137.799492 266.598437)scale(0.1 -0.1)">
       <use xlink:href="#DejaVuSans-35"/>
       <use x="63.623047" xlink:href="#DejaVuSans-30"/>
      </g>
     </g>
    </g>
    <g id="xtick_4">
     <g id="line2d_4">
      <g>
       <use style="stroke:#000000;stroke-width:0.8;" x="182.39863" xlink:href="#m02a8964e7e" y="252"/>
      </g>
     </g>
     <g id="text_4">
      <!-- 75 -->
      <g transform="translate(176.03613 266.598437)scale(0.1 -0.1)">
       <defs>
        <path d="M 525 4666 
L 3525 4666 
L 3525 4397 
L 1831 0 
L 1172 0 
L 2766 4134 
L 525 4134 
L 525 4666 
z
" id="DejaVuSans-37" transform="scale(0.015625)"/>
       </defs>
       <use xlink:href="#DejaVuSans-37"/>
       <use x="63.623047" xlink:href="#DejaVuSans-35"/>
      </g>
     </g>
    </g>
    <g id="xtick_5">
     <g id="line2d_5">
      <g>
       <use style="stroke:#000000;stroke-width:0.8;" x="220.635267" xlink:href="#m02a8964e7e" y="252"/>
      </g>
     </g>
     <g id="text_5">
      <!-- 100 -->
      <g transform="translate(211.091517 266.598437)scale(0.1 -0.1)">
       <defs>
        <path d="M 794 531 
L 1825 531 
L 1825 4091 
L 703 3866 
L 703 4441 
L 1819 4666 
L 2450 4666 
L 2450 531 
L 3481 531 
L 3481 0 
L 794 0 
L 794 531 
z
" id="DejaVuSans-31" transform="scale(0.015625)"/>
       </defs>
       <use xlink:href="#DejaVuSans-31"/>
       <use x="63.623047" xlink:href="#DejaVuSans-30"/>
       <use x="127.246094" xlink:href="#DejaVuSans-30"/>
      </g>
     </g>
    </g>
    <g id="xtick_6">
     <g id="line2d_6">
      <g>
       <use style="stroke:#000000;stroke-width:0.8;" x="258.871905" xlink:href="#m02a8964e7e" y="252"/>
      </g>
     </g>
     <g id="text_6">
      <!-- 125 -->
      <g transform="translate(249.328155 266.598437)scale(0.1 -0.1)">
       <use xlink:href="#DejaVuSans-31"/>
       <use x="63.623047" xlink:href="#DejaVuSans-32"/>
       <use x="127.246094" xlink:href="#DejaVuSans-35"/>
      </g>
     </g>
    </g>
    <g id="xtick_7">
     <g id="line2d_7">
      <g>
       <use style="stroke:#000000;stroke-width:0.8;" x="297.108543" xlink:href="#m02a8964e7e" y="252"/>
      </g>
     </g>
     <g id="text_7">
      <!-- 150 -->
      <g transform="translate(287.564793 266.598437)scale(0.1 -0.1)">
       <use xlink:href="#DejaVuSans-31"/>
       <use x="63.623047" xlink:href="#DejaVuSans-35"/>
       <use x="127.246094" xlink:href="#DejaVuSans-30"/>
      </g>
     </g>
    </g>
    <g id="xtick_8">
     <g id="line2d_8">
      <g>
       <use style="stroke:#000000;stroke-width:0.8;" x="335.34518" xlink:href="#m02a8964e7e" y="252"/>
      </g>
     </g>
     <g id="text_8">
      <!-- 175 -->
      <g transform="translate(325.80143 266.598437)scale(0.1 -0.1)">
       <use xlink:href="#DejaVuSans-31"/>
       <use x="63.623047" xlink:href="#DejaVuSans-37"/>
       <use x="127.246094" xlink:href="#DejaVuSans-35"/>
      </g>
     </g>
    </g>
    <g id="xtick_9">
     <g id="line2d_9">
      <g>
       <use style="stroke:#000000;stroke-width:0.8;" x="373.581818" xlink:href="#m02a8964e7e" y="252"/>
      </g>
     </g>
     <g id="text_9">
      <!-- 200 -->
      <g transform="translate(364.038068 266.598437)scale(0.1 -0.1)">
       <use xlink:href="#DejaVuSans-32"/>
       <use x="63.623047" xlink:href="#DejaVuSans-30"/>
       <use x="127.246094" xlink:href="#DejaVuSans-30"/>
      </g>
     </g>
    </g>
    <g id="text_10">
     <!-- Epochs -->
     <g transform="translate(203.484375 280.276563)scale(0.1 -0.1)">
      <defs>
       <path d="M 628 4666 
L 3578 4666 
L 3578 4134 
L 1259 4134 
L 1259 2753 
L 3481 2753 
L 3481 2222 
L 1259 2222 
L 1259 531 
L 3634 531 
L 3634 0 
L 628 0 
L 628 4666 
z
" id="DejaVuSans-45" transform="scale(0.015625)"/>
       <path d="M 1159 525 
L 1159 -1331 
L 581 -1331 
L 581 3500 
L 1159 3500 
L 1159 2969 
Q 1341 3281 1617 3432 
Q 1894 3584 2278 3584 
Q 2916 3584 3314 3078 
Q 3713 2572 3713 1747 
Q 3713 922 3314 415 
Q 2916 -91 2278 -91 
Q 1894 -91 1617 61 
Q 1341 213 1159 525 
z
M 3116 1747 
Q 3116 2381 2855 2742 
Q 2594 3103 2138 3103 
Q 1681 3103 1420 2742 
Q 1159 2381 1159 1747 
Q 1159 1113 1420 752 
Q 1681 391 2138 391 
Q 2594 391 2855 752 
Q 3116 1113 3116 1747 
z
" id="DejaVuSans-70" transform="scale(0.015625)"/>
       <path d="M 1959 3097 
Q 1497 3097 1228 2736 
Q 959 2375 959 1747 
Q 959 1119 1226 758 
Q 1494 397 1959 397 
Q 2419 397 2687 759 
Q 2956 1122 2956 1747 
Q 2956 2369 2687 2733 
Q 2419 3097 1959 3097 
z
M 1959 3584 
Q 2709 3584 3137 3096 
Q 3566 2609 3566 1747 
Q 3566 888 3137 398 
Q 2709 -91 1959 -91 
Q 1206 -91 779 398 
Q 353 888 353 1747 
Q 353 2609 779 3096 
Q 1206 3584 1959 3584 
z
" id="DejaVuSans-6f" transform="scale(0.015625)"/>
       <path d="M 3122 3366 
L 3122 2828 
Q 2878 2963 2633 3030 
Q 2388 3097 2138 3097 
Q 1578 3097 1268 2742 
Q 959 2388 959 1747 
Q 959 1106 1268 751 
Q 1578 397 2138 397 
Q 2388 397 2633 464 
Q 2878 531 3122 666 
L 3122 134 
Q 2881 22 2623 -34 
Q 2366 -91 2075 -91 
Q 1284 -91 818 406 
Q 353 903 353 1747 
Q 353 2603 823 3093 
Q 1294 3584 2113 3584 
Q 2378 3584 2631 3529 
Q 2884 3475 3122 3366 
z
" id="DejaVuSans-63" transform="scale(0.015625)"/>
       <path d="M 3513 2113 
L 3513 0 
L 2938 0 
L 2938 2094 
Q 2938 2591 2744 2837 
Q 2550 3084 2163 3084 
Q 1697 3084 1428 2787 
Q 1159 2491 1159 1978 
L 1159 0 
L 581 0 
L 581 4863 
L 1159 4863 
L 1159 2956 
Q 1366 3272 1645 3428 
Q 1925 3584 2291 3584 
Q 2894 3584 3203 3211 
Q 3513 2838 3513 2113 
z
" id="DejaVuSans-68" transform="scale(0.015625)"/>
       <path d="M 2834 3397 
L 2834 2853 
Q 2591 2978 2328 3040 
Q 2066 3103 1784 3103 
Q 1356 3103 1142 2972 
Q 928 2841 928 2578 
Q 928 2378 1081 2264 
Q 1234 2150 1697 2047 
L 1894 2003 
Q 2506 1872 2764 1633 
Q 3022 1394 3022 966 
Q 3022 478 2636 193 
Q 2250 -91 1575 -91 
Q 1294 -91 989 -36 
Q 684 19 347 128 
L 347 722 
Q 666 556 975 473 
Q 1284 391 1588 391 
Q 1994 391 2212 530 
Q 2431 669 2431 922 
Q 2431 1156 2273 1281 
Q 2116 1406 1581 1522 
L 1381 1569 
Q 847 1681 609 1914 
Q 372 2147 372 2553 
Q 372 3047 722 3315 
Q 1072 3584 1716 3584 
Q 2034 3584 2315 3537 
Q 2597 3491 2834 3397 
z
" id="DejaVuSans-73" transform="scale(0.015625)"/>
      </defs>
      <use xlink:href="#DejaVuSans-45"/>
      <use x="63.183594" xlink:href="#DejaVuSans-70"/>
      <use x="126.660156" xlink:href="#DejaVuSans-6f"/>
      <use x="187.841797" xlink:href="#DejaVuSans-63"/>
      <use x="242.822266" xlink:href="#DejaVuSans-68"/>
      <use x="306.201172" xlink:href="#DejaVuSans-73"/>
     </g>
    </g>
   </g>
   <g id="matplotlib.axis_2">
    <g id="ytick_1">
     <g id="line2d_10">
      <defs>
       <path d="M 0 0 
L -3.5 0 
" id="mc6be02f995" style="stroke:#000000;stroke-width:0.8;"/>
      </defs>
      <g>
       <use style="stroke:#000000;stroke-width:0.8;" x="54" xlink:href="#mc6be02f995" y="252"/>
      </g>
     </g>
     <g id="text_11">
      <!-- 0.0 -->
      <g transform="translate(31.096875 255.799219)scale(0.1 -0.1)">
       <defs>
        <path d="M 684 794 
L 1344 794 
L 1344 0 
L 684 0 
L 684 794 
z
" id="DejaVuSans-2e" transform="scale(0.015625)"/>
       </defs>
       <use xlink:href="#DejaVuSans-30"/>
       <use x="63.623047" xlink:href="#DejaVuSans-2e"/>
       <use x="95.410156" xlink:href="#DejaVuSans-30"/>
      </g>
     </g>
    </g>
    <g id="ytick_2">
     <g id="line2d_11">
      <g>
       <use style="stroke:#000000;stroke-width:0.8;" x="54" xlink:href="#mc6be02f995" y="204.730435"/>
      </g>
     </g>
     <g id="text_12">
      <!-- 0.5 -->
      <g transform="translate(31.096875 208.529654)scale(0.1 -0.1)">
       <use xlink:href="#DejaVuSans-30"/>
       <use x="63.623047" xlink:href="#DejaVuSans-2e"/>
       <use x="95.410156" xlink:href="#DejaVuSans-35"/>
      </g>
     </g>
    </g>
    <g id="ytick_3">
     <g id="line2d_12">
      <g>
       <use style="stroke:#000000;stroke-width:0.8;" x="54" xlink:href="#mc6be02f995" y="157.46087"/>
      </g>
     </g>
     <g id="text_13">
      <!-- 1.0 -->
      <g transform="translate(31.096875 161.260088)scale(0.1 -0.1)">
       <use xlink:href="#DejaVuSans-31"/>
       <use x="63.623047" xlink:href="#DejaVuSans-2e"/>
       <use x="95.410156" xlink:href="#DejaVuSans-30"/>
      </g>
     </g>
    </g>
    <g id="ytick_4">
     <g id="line2d_13">
      <g>
       <use style="stroke:#000000;stroke-width:0.8;" x="54" xlink:href="#mc6be02f995" y="110.191304"/>
      </g>
     </g>
     <g id="text_14">
      <!-- 1.5 -->
      <g transform="translate(31.096875 113.990523)scale(0.1 -0.1)">
       <use xlink:href="#DejaVuSans-31"/>
       <use x="63.623047" xlink:href="#DejaVuSans-2e"/>
       <use x="95.410156" xlink:href="#DejaVuSans-35"/>
      </g>
     </g>
    </g>
    <g id="ytick_5">
     <g id="line2d_14">
      <g>
       <use style="stroke:#000000;stroke-width:0.8;" x="54" xlink:href="#mc6be02f995" y="62.921739"/>
      </g>
     </g>
     <g id="text_15">
      <!-- 2.0 -->
      <g transform="translate(31.096875 66.720958)scale(0.1 -0.1)">
       <use xlink:href="#DejaVuSans-32"/>
       <use x="63.623047" xlink:href="#DejaVuSans-2e"/>
       <use x="95.410156" xlink:href="#DejaVuSans-30"/>
      </g>
     </g>
    </g>
    <g id="text_16">
     <!-- Loss -->
     <g transform="translate(25.017187 154.247187)rotate(-90)scale(0.1 -0.1)">
      <defs>
       <path d="M 628 4666 
L 1259 4666 
L 1259 531 
L 3531 531 
L 3531 0 
L 628 0 
L 628 4666 
z
" id="DejaVuSans-4c" transform="scale(0.015625)"/>
      </defs>
      <use xlink:href="#DejaVuSans-4c"/>
      <use x="53.962891" xlink:href="#DejaVuSans-6f"/>
      <use x="115.144531" xlink:href="#DejaVuSans-73"/>
      <use x="167.244141" xlink:href="#DejaVuSans-73"/>
     </g>
    </g>
   </g>
   <g id="line2d_15">
    <path clip-path="url(#p9690c70448)" d="M 69.218182 202.556035 
L 72.277113 203.595965 
L 73.806578 205.014052 
L 75.336044 204.257739 
L 76.865509 205.959443 
L 78.394975 206.148522 
L 81.453906 207.566609 
L 82.983371 208.417461 
L 84.512837 208.228383 
L 86.042302 208.606539 
L 87.571768 209.362852 
L 89.101233 209.930087 
L 90.630699 209.64647 
L 92.160164 209.835548 
L 93.68963 210.780939 
L 95.219095 210.402783 
L 96.748561 210.591861 
L 98.278026 210.970017 
L 99.807492 210.6864 
L 101.336958 211.537252 
L 102.866423 211.72633 
L 104.395889 211.442713 
L 105.925354 210.875478 
L 107.45482 211.915409 
L 108.984285 210.591861 
L 110.513751 210.591861 
L 112.043216 210.875478 
L 113.572682 210.402783 
L 115.102147 210.119165 
L 116.631613 210.875478 
L 118.161078 210.213704 
L 119.690544 208.606539 
L 121.220009 208.795617 
L 122.749475 208.606539 
L 124.27894 206.432139 
L 125.808406 206.3376 
L 128.867337 205.581287 
L 130.396802 204.730435 
L 131.926268 204.730435 
L 133.455733 202.272417 
L 134.985199 202.461496 
L 136.514664 202.083339 
L 138.04413 200.665252 
L 139.573595 199.8144 
L 141.103061 199.152626 
L 142.632526 197.923617 
L 144.161992 198.963548 
L 145.691457 197.545461 
L 147.220923 195.371061 
L 148.750388 196.127374 
L 150.279854 194.236591 
L 151.809319 194.709287 
L 154.86825 193.858435 
L 156.397716 192.345809 
L 159.456647 192.913043 
L 160.986112 192.723965 
L 162.515578 191.494957 
L 164.045043 191.211339 
L 165.574509 189.698713 
L 168.63344 191.211339 
L 170.162905 190.455026 
L 171.692371 192.15673 
L 173.221836 191.022261 
L 174.751302 191.494957 
L 176.280767 190.927722 
L 177.810233 191.967652 
L 179.339698 192.723965 
L 180.869164 193.196661 
L 182.39863 192.818504 
L 185.457561 194.614748 
L 186.987026 194.42567 
L 188.516492 194.047513 
L 190.045957 195.087443 
L 191.575423 195.4656 
L 193.104888 196.789148 
L 194.634354 197.450922 
L 196.163819 196.60007 
L 197.693285 198.67993 
L 199.22275 198.585391 
L 200.752216 198.301774 
L 202.281681 200.098017 
L 203.811147 201.137948 
L 205.340612 200.665252 
L 206.870078 201.516104 
L 208.399543 200.759791 
L 209.929009 202.177878 
L 211.458474 202.934191 
L 212.98794 203.217809 
L 214.517405 203.217809 
L 216.046871 204.1632 
L 217.576336 203.785043 
L 219.105802 203.12327 
L 220.635267 203.974122 
L 222.164733 203.12327 
L 225.223664 201.705183 
L 226.753129 201.9888 
L 228.282595 201.327026 
L 229.81206 200.94887 
L 231.341526 201.894261 
L 232.870991 201.137948 
L 234.400457 199.625322 
L 235.929922 200.665252 
L 238.988853 199.341704 
L 240.518319 199.908939 
L 243.57725 200.192557 
L 245.106715 199.247165 
L 246.636181 200.570713 
L 251.224577 201.705183 
L 252.754043 202.934191 
L 254.283508 203.12327 
L 255.812974 203.974122 
L 257.342439 204.068661 
L 258.871905 203.217809 
L 260.40137 205.20313 
L 261.930836 203.501426 
L 263.460302 202.366957 
L 264.989767 202.272417 
L 266.519233 203.12327 
L 268.048698 202.083339 
L 269.578164 201.421565 
L 271.107629 200.570713 
L 272.637095 201.894261 
L 274.16656 201.421565 
L 275.696026 201.799722 
L 277.225491 199.8144 
L 278.754957 198.963548 
L 280.284422 197.356383 
L 281.813888 198.301774 
L 283.343353 196.60007 
L 284.872819 197.261843 
L 286.402284 196.694609 
L 287.93175 195.276522 
L 289.461215 196.032835 
L 290.990681 195.087443 
L 292.520146 195.181983 
L 294.049612 196.60007 
L 295.579077 196.316452 
L 297.108543 196.883687 
L 298.638008 196.694609 
L 300.167474 196.978226 
L 301.696939 198.490852 
L 303.226405 201.232487 
L 304.75587 198.77447 
L 306.285336 198.869009 
L 307.814801 199.8144 
L 309.344267 200.476174 
L 310.873732 201.327026 
L 312.403198 202.934191 
L 313.932663 200.665252 
L 315.462129 200.098017 
L 316.991594 199.719861 
L 318.52106 205.29767 
L 320.050525 202.745113 
L 321.579991 207.282991 
L 323.109456 205.108591 
L 324.638922 205.486748 
L 326.168387 205.675826 
L 327.697853 206.904835 
L 329.227318 204.824974 
L 330.756784 209.173774 
L 332.286249 206.053983 
L 333.815715 209.930087 
L 335.34518 209.268313 
L 336.874646 209.64647 
L 338.404111 210.213704 
L 339.933577 214.089809 
L 341.463042 213.522574 
L 342.992508 211.442713 
L 344.521974 216.453287 
L 346.051439 213.90073 
L 347.580905 215.980591 
L 349.11037 216.547826 
L 350.639836 219.478539 
L 352.169301 219.856696 
L 353.698767 218.816765 
L 356.757698 221.274783 
L 358.287163 220.613009 
L 359.816629 221.652939 
L 361.346094 221.180243 
L 362.87556 222.125635 
L 367.463956 221.463861 
L 368.993422 221.5584 
L 370.522887 220.613009 
L 372.052353 221.085704 
L 373.581818 220.42393 
L 373.581818 220.42393 
" style="fill:none;stroke:#1f77b4;stroke-linecap:square;stroke-width:1.5;"/>
   </g>
   <g id="line2d_16">
    <path clip-path="url(#p9690c70448)" d="M 69.218182 173.437983 
L 70.747647 172.019896 
L 72.277113 169.089183 
L 73.806578 171.830817 
L 76.865509 168.994643 
L 78.394975 168.711026 
L 79.92444 169.089183 
L 81.453906 168.521948 
L 82.983371 164.834922 
L 84.512837 166.253009 
L 86.042302 166.442087 
L 87.571768 167.576557 
L 89.101233 164.078609 
L 90.630699 162.471443 
L 92.160164 162.376904 
L 93.68963 161.904209 
L 95.219095 161.053357 
L 96.748561 162.660522 
L 98.278026 163.322296 
L 99.807492 161.998748 
L 101.336958 161.336974 
L 102.866423 158.311722 
L 104.395889 160.391583 
L 107.45482 165.496696 
L 108.984285 161.998748 
L 110.513751 161.431513 
L 112.043216 159.918887 
L 113.572682 162.944139 
L 115.102147 164.078609 
L 116.631613 162.8496 
L 118.161078 165.024 
L 119.690544 165.118539 
L 121.220009 170.790887 
L 122.749475 166.06393 
L 124.27894 173.816139 
L 125.808406 171.074504 
L 127.337871 172.870748 
L 128.867337 174.288835 
L 130.396802 172.870748 
L 131.926268 175.234226 
L 133.455733 179.015791 
L 134.985199 179.11033 
L 136.514664 179.772104 
L 138.04413 180.622957 
L 139.573595 180.433878 
L 141.103061 184.309983 
L 142.632526 184.5936 
L 144.161992 187.713391 
L 145.691457 189.320557 
L 147.220923 185.444452 
L 148.750388 190.360487 
L 150.279854 188.753322 
L 151.809319 191.494957 
L 153.338785 190.644104 
L 154.86825 191.305878 
L 157.927181 191.589496 
L 159.456647 192.723965 
L 160.986112 194.33113 
L 162.515578 193.102122 
L 164.045043 192.25127 
L 165.574509 195.087443 
L 167.103974 192.534887 
L 168.63344 193.385739 
L 170.162905 190.738643 
L 171.692371 192.534887 
L 173.221836 191.211339 
L 174.751302 192.818504 
L 176.280767 189.698713 
L 177.810233 191.684035 
L 179.339698 190.455026 
L 180.869164 188.847861 
L 182.39863 190.833183 
L 183.928095 189.698713 
L 185.457561 187.618852 
L 186.987026 188.091548 
L 188.516492 185.160835 
L 190.045957 184.215443 
L 191.575423 182.230122 
L 193.104888 181.473809 
L 194.634354 181.37927 
L 196.163819 178.354017 
L 197.693285 178.259478 
L 199.22275 176.557774 
L 200.752216 175.990539 
L 202.281681 174.383374 
L 203.811147 172.58713 
L 205.340612 169.561878 
L 206.870078 171.263583 
L 208.399543 168.711026 
L 209.929009 167.103861 
L 211.458474 164.362226 
L 212.98794 165.402157 
L 214.517405 165.685774 
L 216.046871 163.605913 
L 217.576336 165.024 
L 219.105802 162.944139 
L 222.164733 165.591235 
L 223.694198 163.605913 
L 225.223664 164.740383 
L 226.753129 166.253009 
L 228.282595 169.183722 
L 229.81206 165.496696 
L 231.341526 167.292939 
L 232.870991 165.402157 
L 234.400457 166.15847 
L 235.929922 169.3728 
L 237.459388 165.685774 
L 238.988853 164.551304 
L 240.518319 167.1984 
L 242.047784 162.660522 
L 243.57725 164.267687 
L 245.106715 158.784417 
L 246.636181 154.908313 
L 248.165646 153.01753 
L 249.695112 155.948243 
L 251.224577 148.385113 
L 252.754043 148.66873 
L 254.283508 147.723339 
L 255.812974 146.116174 
L 257.342439 137.702191 
L 258.871905 141.578296 
L 260.40137 137.985809 
L 261.930836 142.429148 
L 263.460302 134.487861 
L 264.989767 139.782052 
L 266.519233 136.567722 
L 268.048698 132.691617 
L 269.578164 131.557148 
L 271.107629 131.557148 
L 272.637095 135.811409 
L 274.16656 134.487861 
L 275.696026 130.611757 
L 277.225491 134.015165 
L 278.754957 139.498435 
L 280.284422 140.254748 
L 281.813888 147.250643 
L 283.343353 139.214817 
L 284.872819 148.290574 
L 286.402284 147.534261 
L 287.93175 148.574191 
L 289.461215 154.813774 
L 290.990681 152.828452 
L 292.520146 156.799096 
L 294.049612 153.301148 
L 295.579077 154.057461 
L 297.108543 155.853704 
L 298.638008 156.3264 
L 300.167474 154.057461 
L 301.696939 154.246539 
L 303.226405 146.210713 
L 304.75587 153.301148 
L 306.285336 149.330504 
L 307.814801 146.021635 
L 309.344267 143.090922 
L 310.873732 143.374539 
L 312.403198 141.956452 
L 313.932663 140.916522 
L 315.462129 140.916522 
L 316.991594 135.055096 
L 318.52106 135.527791 
L 320.050525 137.134957 
L 321.579991 136.378643 
L 323.109456 132.691617 
L 324.638922 134.866017 
L 326.168387 129.288209 
L 327.697853 127.775583 
L 329.227318 125.412104 
L 330.756784 125.223026 
L 332.286249 121.441461 
L 333.815715 113.97287 
L 335.34518 116.998122 
L 336.874646 114.351026 
L 338.404111 112.365704 
L 339.933577 115.769113 
L 341.463042 106.3152 
L 342.992508 107.733287 
L 344.521974 106.976974 
L 346.051439 104.424417 
L 347.580905 108.773217 
L 349.11037 103.289948 
L 350.639836 107.35513 
L 352.169301 96.955826 
L 353.698767 99.697461 
L 356.757698 94.592348 
L 358.287163 98.941148 
L 359.816629 98.562991 
L 361.346094 95.254122 
L 362.87556 95.348661 
L 364.405025 93.363339 
L 365.934491 87.88007 
L 367.463956 95.4432 
L 368.993422 90.621704 
L 370.522887 86.840139 
L 372.052353 95.348661 
L 373.581818 92.985183 
L 373.581818 92.985183 
" style="fill:none;stroke:#ff7f0e;stroke-linecap:square;stroke-width:1.5;"/>
   </g>
   <g id="patch_3">
    <path d="M 54 252 
L 54 34.56 
" style="fill:none;stroke:#000000;stroke-linecap:square;stroke-linejoin:miter;stroke-width:0.8;"/>
   </g>
   <g id="patch_4">
    <path d="M 388.8 252 
L 388.8 34.56 
" style="fill:none;stroke:#000000;stroke-linecap:square;stroke-linejoin:miter;stroke-width:0.8;"/>
   </g>
   <g id="patch_5">
    <path d="M 54 252 
L 388.8 252 
" style="fill:none;stroke:#000000;stroke-linecap:square;stroke-linejoin:miter;stroke-width:0.8;"/>
   </g>
   <g id="patch_6">
    <path d="M 54 34.56 
L 388.8 34.56 
" style="fill:none;stroke:#000000;stroke-linecap:square;stroke-linejoin:miter;stroke-width:0.8;"/>
   </g>
   <g id="text_17">
    <!-- Curvas entrenamiento GAN -->
    <g transform="translate(139.153125 28.56)scale(0.12 -0.12)">
     <defs>
      <path d="M 4122 4306 
L 4122 3641 
Q 3803 3938 3442 4084 
Q 3081 4231 2675 4231 
Q 1875 4231 1450 3742 
Q 1025 3253 1025 2328 
Q 1025 1406 1450 917 
Q 1875 428 2675 428 
Q 3081 428 3442 575 
Q 3803 722 4122 1019 
L 4122 359 
Q 3791 134 3420 21 
Q 3050 -91 2638 -91 
Q 1578 -91 968 557 
Q 359 1206 359 2328 
Q 359 3453 968 4101 
Q 1578 4750 2638 4750 
Q 3056 4750 3426 4639 
Q 3797 4528 4122 4306 
z
" id="DejaVuSans-43" transform="scale(0.015625)"/>
      <path d="M 544 1381 
L 544 3500 
L 1119 3500 
L 1119 1403 
Q 1119 906 1312 657 
Q 1506 409 1894 409 
Q 2359 409 2629 706 
Q 2900 1003 2900 1516 
L 2900 3500 
L 3475 3500 
L 3475 0 
L 2900 0 
L 2900 538 
Q 2691 219 2414 64 
Q 2138 -91 1772 -91 
Q 1169 -91 856 284 
Q 544 659 544 1381 
z
M 1991 3584 
L 1991 3584 
z
" id="DejaVuSans-75" transform="scale(0.015625)"/>
      <path d="M 2631 2963 
Q 2534 3019 2420 3045 
Q 2306 3072 2169 3072 
Q 1681 3072 1420 2755 
Q 1159 2438 1159 1844 
L 1159 0 
L 581 0 
L 581 3500 
L 1159 3500 
L 1159 2956 
Q 1341 3275 1631 3429 
Q 1922 3584 2338 3584 
Q 2397 3584 2469 3576 
Q 2541 3569 2628 3553 
L 2631 2963 
z
" id="DejaVuSans-72" transform="scale(0.015625)"/>
      <path d="M 191 3500 
L 800 3500 
L 1894 563 
L 2988 3500 
L 3597 3500 
L 2284 0 
L 1503 0 
L 191 3500 
z
" id="DejaVuSans-76" transform="scale(0.015625)"/>
      <path d="M 2194 1759 
Q 1497 1759 1228 1600 
Q 959 1441 959 1056 
Q 959 750 1161 570 
Q 1363 391 1709 391 
Q 2188 391 2477 730 
Q 2766 1069 2766 1631 
L 2766 1759 
L 2194 1759 
z
M 3341 1997 
L 3341 0 
L 2766 0 
L 2766 531 
Q 2569 213 2275 61 
Q 1981 -91 1556 -91 
Q 1019 -91 701 211 
Q 384 513 384 1019 
Q 384 1609 779 1909 
Q 1175 2209 1959 2209 
L 2766 2209 
L 2766 2266 
Q 2766 2663 2505 2880 
Q 2244 3097 1772 3097 
Q 1472 3097 1187 3025 
Q 903 2953 641 2809 
L 641 3341 
Q 956 3463 1253 3523 
Q 1550 3584 1831 3584 
Q 2591 3584 2966 3190 
Q 3341 2797 3341 1997 
z
" id="DejaVuSans-61" transform="scale(0.015625)"/>
      <path id="DejaVuSans-20" transform="scale(0.015625)"/>
      <path d="M 3597 1894 
L 3597 1613 
L 953 1613 
Q 991 1019 1311 708 
Q 1631 397 2203 397 
Q 2534 397 2845 478 
Q 3156 559 3463 722 
L 3463 178 
Q 3153 47 2828 -22 
Q 2503 -91 2169 -91 
Q 1331 -91 842 396 
Q 353 884 353 1716 
Q 353 2575 817 3079 
Q 1281 3584 2069 3584 
Q 2775 3584 3186 3129 
Q 3597 2675 3597 1894 
z
M 3022 2063 
Q 3016 2534 2758 2815 
Q 2500 3097 2075 3097 
Q 1594 3097 1305 2825 
Q 1016 2553 972 2059 
L 3022 2063 
z
" id="DejaVuSans-65" transform="scale(0.015625)"/>
      <path d="M 3513 2113 
L 3513 0 
L 2938 0 
L 2938 2094 
Q 2938 2591 2744 2837 
Q 2550 3084 2163 3084 
Q 1697 3084 1428 2787 
Q 1159 2491 1159 1978 
L 1159 0 
L 581 0 
L 581 3500 
L 1159 3500 
L 1159 2956 
Q 1366 3272 1645 3428 
Q 1925 3584 2291 3584 
Q 2894 3584 3203 3211 
Q 3513 2838 3513 2113 
z
" id="DejaVuSans-6e" transform="scale(0.015625)"/>
      <path d="M 1172 4494 
L 1172 3500 
L 2356 3500 
L 2356 3053 
L 1172 3053 
L 1172 1153 
Q 1172 725 1289 603 
Q 1406 481 1766 481 
L 2356 481 
L 2356 0 
L 1766 0 
Q 1100 0 847 248 
Q 594 497 594 1153 
L 594 3053 
L 172 3053 
L 172 3500 
L 594 3500 
L 594 4494 
L 1172 4494 
z
" id="DejaVuSans-74" transform="scale(0.015625)"/>
      <path d="M 3328 2828 
Q 3544 3216 3844 3400 
Q 4144 3584 4550 3584 
Q 5097 3584 5394 3201 
Q 5691 2819 5691 2113 
L 5691 0 
L 5113 0 
L 5113 2094 
Q 5113 2597 4934 2840 
Q 4756 3084 4391 3084 
Q 3944 3084 3684 2787 
Q 3425 2491 3425 1978 
L 3425 0 
L 2847 0 
L 2847 2094 
Q 2847 2600 2669 2842 
Q 2491 3084 2119 3084 
Q 1678 3084 1418 2786 
Q 1159 2488 1159 1978 
L 1159 0 
L 581 0 
L 581 3500 
L 1159 3500 
L 1159 2956 
Q 1356 3278 1631 3431 
Q 1906 3584 2284 3584 
Q 2666 3584 2933 3390 
Q 3200 3197 3328 2828 
z
" id="DejaVuSans-6d" transform="scale(0.015625)"/>
      <path d="M 603 3500 
L 1178 3500 
L 1178 0 
L 603 0 
L 603 3500 
z
M 603 4863 
L 1178 4863 
L 1178 4134 
L 603 4134 
L 603 4863 
z
" id="DejaVuSans-69" transform="scale(0.015625)"/>
      <path d="M 3809 666 
L 3809 1919 
L 2778 1919 
L 2778 2438 
L 4434 2438 
L 4434 434 
Q 4069 175 3628 42 
Q 3188 -91 2688 -91 
Q 1594 -91 976 548 
Q 359 1188 359 2328 
Q 359 3472 976 4111 
Q 1594 4750 2688 4750 
Q 3144 4750 3555 4637 
Q 3966 4525 4313 4306 
L 4313 3634 
Q 3963 3931 3569 4081 
Q 3175 4231 2741 4231 
Q 1884 4231 1454 3753 
Q 1025 3275 1025 2328 
Q 1025 1384 1454 906 
Q 1884 428 2741 428 
Q 3075 428 3337 486 
Q 3600 544 3809 666 
z
" id="DejaVuSans-47" transform="scale(0.015625)"/>
      <path d="M 2188 4044 
L 1331 1722 
L 3047 1722 
L 2188 4044 
z
M 1831 4666 
L 2547 4666 
L 4325 0 
L 3669 0 
L 3244 1197 
L 1141 1197 
L 716 0 
L 50 0 
L 1831 4666 
z
" id="DejaVuSans-41" transform="scale(0.015625)"/>
      <path d="M 628 4666 
L 1478 4666 
L 3547 763 
L 3547 4666 
L 4159 4666 
L 4159 0 
L 3309 0 
L 1241 3903 
L 1241 0 
L 628 0 
L 628 4666 
z
" id="DejaVuSans-4e" transform="scale(0.015625)"/>
     </defs>
     <use xlink:href="#DejaVuSans-43"/>
     <use x="69.824219" xlink:href="#DejaVuSans-75"/>
     <use x="133.203125" xlink:href="#DejaVuSans-72"/>
     <use x="174.316406" xlink:href="#DejaVuSans-76"/>
     <use x="233.496094" xlink:href="#DejaVuSans-61"/>
     <use x="294.775391" xlink:href="#DejaVuSans-73"/>
     <use x="346.875" xlink:href="#DejaVuSans-20"/>
     <use x="378.662109" xlink:href="#DejaVuSans-65"/>
     <use x="440.185547" xlink:href="#DejaVuSans-6e"/>
     <use x="503.564453" xlink:href="#DejaVuSans-74"/>
     <use x="542.773438" xlink:href="#DejaVuSans-72"/>
     <use x="581.636719" xlink:href="#DejaVuSans-65"/>
     <use x="643.160156" xlink:href="#DejaVuSans-6e"/>
     <use x="706.539062" xlink:href="#DejaVuSans-61"/>
     <use x="767.818359" xlink:href="#DejaVuSans-6d"/>
     <use x="865.230469" xlink:href="#DejaVuSans-69"/>
     <use x="893.013672" xlink:href="#DejaVuSans-65"/>
     <use x="954.537109" xlink:href="#DejaVuSans-6e"/>
     <use x="1017.916016" xlink:href="#DejaVuSans-74"/>
     <use x="1057.125" xlink:href="#DejaVuSans-6f"/>
     <use x="1118.306641" xlink:href="#DejaVuSans-20"/>
     <use x="1150.09375" xlink:href="#DejaVuSans-47"/>
     <use x="1227.583984" xlink:href="#DejaVuSans-41"/>
     <use x="1295.992188" xlink:href="#DejaVuSans-4e"/>
    </g>
   </g>
   <g id="legend_1">
    <g id="patch_7">
     <path d="M 282.590625 71.91625 
L 381.8 71.91625 
Q 383.8 71.91625 383.8 69.91625 
L 383.8 41.56 
Q 383.8 39.56 381.8 39.56 
L 282.590625 39.56 
Q 280.590625 39.56 280.590625 41.56 
L 280.590625 69.91625 
Q 280.590625 71.91625 282.590625 71.91625 
z
" style="fill:#ffffff;opacity:0.8;stroke:#cccccc;stroke-linejoin:miter;"/>
    </g>
    <g id="line2d_17">
     <path d="M 284.590625 47.658437 
L 304.590625 47.658437 
" style="fill:none;stroke:#1f77b4;stroke-linecap:square;stroke-width:1.5;"/>
    </g>
    <g id="line2d_18"/>
    <g id="text_18">
     <!-- Discriminator -->
     <g transform="translate(312.590625 51.158437)scale(0.1 -0.1)">
      <defs>
       <path d="M 1259 4147 
L 1259 519 
L 2022 519 
Q 2988 519 3436 956 
Q 3884 1394 3884 2338 
Q 3884 3275 3436 3711 
Q 2988 4147 2022 4147 
L 1259 4147 
z
M 628 4666 
L 1925 4666 
Q 3281 4666 3915 4102 
Q 4550 3538 4550 2338 
Q 4550 1131 3912 565 
Q 3275 0 1925 0 
L 628 0 
L 628 4666 
z
" id="DejaVuSans-44" transform="scale(0.015625)"/>
      </defs>
      <use xlink:href="#DejaVuSans-44"/>
      <use x="77.001953" xlink:href="#DejaVuSans-69"/>
      <use x="104.785156" xlink:href="#DejaVuSans-73"/>
      <use x="156.884766" xlink:href="#DejaVuSans-63"/>
      <use x="211.865234" xlink:href="#DejaVuSans-72"/>
      <use x="252.978516" xlink:href="#DejaVuSans-69"/>
      <use x="280.761719" xlink:href="#DejaVuSans-6d"/>
      <use x="378.173828" xlink:href="#DejaVuSans-69"/>
      <use x="405.957031" xlink:href="#DejaVuSans-6e"/>
      <use x="469.335938" xlink:href="#DejaVuSans-61"/>
      <use x="530.615234" xlink:href="#DejaVuSans-74"/>
      <use x="569.824219" xlink:href="#DejaVuSans-6f"/>
      <use x="631.005859" xlink:href="#DejaVuSans-72"/>
     </g>
    </g>
    <g id="line2d_19">
     <path d="M 284.590625 62.336562 
L 304.590625 62.336562 
" style="fill:none;stroke:#ff7f0e;stroke-linecap:square;stroke-width:1.5;"/>
    </g>
    <g id="line2d_20"/>
    <g id="text_19">
     <!-- Generator -->
     <g transform="translate(312.590625 65.836562)scale(0.1 -0.1)">
      <use xlink:href="#DejaVuSans-47"/>
      <use x="77.490234" xlink:href="#DejaVuSans-65"/>
      <use x="139.013672" xlink:href="#DejaVuSans-6e"/>
      <use x="202.392578" xlink:href="#DejaVuSans-65"/>
      <use x="263.916016" xlink:href="#DejaVuSans-72"/>
      <use x="305.029297" xlink:href="#DejaVuSans-61"/>
      <use x="366.308594" xlink:href="#DejaVuSans-74"/>
      <use x="405.517578" xlink:href="#DejaVuSans-6f"/>
      <use x="466.699219" xlink:href="#DejaVuSans-72"/>
     </g>
    </g>
   </g>
  </g>
 </g>
 <defs>
  <clipPath id="p9690c70448">
   <rect height="217.44" width="334.8" x="54" y="34.56"/>
  </clipPath>
 </defs>
</svg>
